Patient4_TMGait_0pt7_01_left_27_EMG.mot
version=1
nRows=30
nColumns=33
inDegrees=no
endheader
time	1LAddLong	2LGlutMax	3LGlutMed	4LIliopsoas	5LSemiMemb	6LBicFemLong	7LRecFem	8LVastMed	9LVastLat	10LGasMed	11LTibAnt	12lTibPost	13LPeroneusLong	14LSol	15LExtDigLong	16LFlexDigLong	17RAddLong	18RGlutMax	19RGlutMed	20RIliopsoas	21RSemiMemb	22RBicFemLong	23RRecFem	24RVastMed	25RVastLat	26RGasMed	27RTibAnt	28RTibPost	29RPeroneusLong	30RSol	31RExtDigLong	32RFlexDigLong
31.11	-0.016327	0.87494	-0.079041	0.004578	-0.020142	0.043488	-0.11871	0.035553	-0.62836	0.00885	-0.021057	0.00061	0.077515	-0.025177	-0.28915	0.027313	-0.019226	0.32715	-1.1324	-0.066833	0.03006	0.05127	-0.10223	0.43945	0.22064	-0.022278	-0.13016	-0.003662	-2.9492	-0.3801	0.002747	-0.00946
31.111	-0.007629	0.979	-0.092316	-0.015411	-0.007019	0.046692	-0.20508	0.035858	-0.67154	-0.026245	0.11871	0.002594	0.019684	0.015106	0.22034	0.020752	-0.001221	0.25589	-0.56061	0.016174	-0.00946	0.083618	0.087433	0.22842	0.11185	0.012665	0.89218	0.001526	-1.0818	-0.47058	0.001068	0.002289
31.112	-0.000458	1.0699	-0.071411	-0.005951	0.005798	0.041809	-0.20996	0.036774	-0.72235	-0.074768	0.25192	-0.005188	-0.083923	0.001221	0.1767	0.032196	-0.003357	0.21332	0.25146	-0.027771	0.011139	0.16083	-0.24384	0.0177	0.29694	0.024414	1.6776	-0.001373	1.3586	-0.49591	0.003357	0.010529
31.113	-0.003204	1.1421	-0.050659	-0.00061	0.010376	0.039215	-0.15686	0.031433	-0.68817	-0.055695	0.10391	0.003204	0.006409	0.000458	0.13931	0.034943	-0.029297	0.17136	0.24429	0.002441	0.00061	0.31158	-0.3421	-0.14145	0.62546	0.015259	0.60638	-0.004272	1.1702	-0.44464	0.002747	0.008392
31.114	-0.007477	1.1456	-0.031891	0.010223	0.007172	0.042267	-0.037384	0.034637	-0.63095	-0.002899	0.070801	0.000305	0.070648	0.015869	0.06134	0.027161	-0.009003	0.17548	-0.29297	-0.00061	-0.027008	0.29816	-0.012054	-0.20737	0.53574	0.009613	-0.52948	-0.006409	0.81009	-0.28564	0	0.001984
31.115	-0.014801	1.2154	-0.034027	0.002747	0.006866	0.038452	0.063629	0.032806	-0.52948	0.044098	0.15259	-0.001831	0.091858	-0.023956	-0.21255	0.021057	0.003815	0.19501	-0.031586	-0.096283	-0.028534	0.12116	0.28763	-0.40665	0.29663	0.001678	-0.22354	-0.008545	1.7578	0.14481	0.001831	0.000305
31.116	-0.015869	1.2633	-0.044403	-0.003662	0.009766	0.045013	0.15869	0.033112	-0.448	0.056458	-0.076752	-0.007477	0.18585	0.021057	-0.32669	0.023804	0.002594	0.16266	0.57205	-0.16907	-0.030212	-0.00824	0.14755	-0.48294	0.055542	0.001678	0.040131	-0.010834	0.032654	0.26443	0.009155	0.002747
31.117	-0.010529	1.2599	-0.047607	-0.019989	0.001831	0.039215	0.19516	0.025635	-0.37186	0.037537	-0.16388	-0.012817	0.091095	0.083771	0.24979	0.011597	-0.030975	0.18097	0.63538	-0.14114	-0.023346	-0.13825	-0.049133	-0.16678	-0.112	0.007935	-0.51254	-0.010376	-0.37689	0.30212	-0.004578	0.00473
31.118	0.011902	1.2534	0.001984	-0.003967	-0.009766	0.037689	0.25467	0.010681	-0.31006	0.023651	-0.092621	-0.009613	0.012207	0.039825	0.11704	0.016785	-0.027313	0.14832	1.0765	-0.18341	-0.008087	-0.25375	0.2179	0.053711	-0.3447	-0.015259	-0.45181	-0.011597	0.11505	0.27039	0.007019	-0.002594
31.119	0.016022	1.2466	-0.009155	0.016022	-0.014496	0.056152	0.2533	0.011139	-0.23773	-0.013275	0.009613	-0.002747	-0.001526	0.030975	0.18188	0.014191	0	0.009155	0.28549	-0.16968	0.005798	-0.3569	0.33691	-0.018158	-0.59753	-0.03418	-0.015717	-0.009918	-0.27298	0.35385	-0.001221	-0.009308
31.12	-0.010376	1.2445	-0.050354	0.027313	0.000153	0.06012	0.22644	0.001221	-0.15533	-0.023651	0.12497	-0.013123	0.007935	0.056152	0.51453	0.021667	-0.005951	-0.084076	-0.061798	-0.17822	0.007629	-0.35126	-0.1506	0.072021	-0.44495	-0.022583	-0.26642	-0.009003	0.327	0.41397	-0.001678	-0.007477
31.121	0.001984	1.2582	-0.055389	0.004578	0.010986	0.032501	0.22064	-0.003052	-0.058289	-0.045776	0.10742	-0.009613	0.11307	0.048676	0.15671	0.017853	-0.036774	-0.12619	-0.25665	-0.13611	0.005035	-0.11932	-0.41473	0.49515	0.14313	-0.019684	-0.46967	-0.002136	1.3986	0.30563	0.000305	-0.006561
31.122	0.007629	1.2785	-0.041504	-0.019531	0.006866	0.045471	0.19989	-0.014191	0.005035	-0.046082	-0.16144	-0.017242	0.18402	0.044861	-0.15625	0.009003	-0.025024	-0.10574	-0.21393	-0.03952	-0.015564	0.034485	-0.4631	0.21698	0.10544	-0.010834	-0.28854	-0.005798	0.67047	0.20279	0.00061	0.009918
31.123	0.006561	1.2538	-0.030365	0.006256	0.003204	0.015717	0.21973	-0.004425	0.054626	-0.005951	-0.17242	-0.015717	0.077667	0.005493	-0.32455	0.002899	0.003815	-0.094452	0.011597	0.15595	-0.023651	-0.007172	-0.40359	0.11215	0.16586	0.000916	0.021057	-0.003052	-1.113	0.044556	0.003204	-0.00473
31.124	-0.003967	1.2497	-0.037384	0.021362	0.003052	-0.005341	0.21774	0.015259	0.094452	0.00824	-0.1532	-0.009308	-0.023651	-0.068359	-0.33295	0.013428	-0.000153	-0.054779	0.28198	0.3067	-0.018158	-0.005493	-0.38254	0.3656	0.15106	-0.003052	0.24597	-0.002747	-1.877	0.16769	0.000153	-0.007019
31.125	-0.001678	1.1823	-0.03067	-0.003815	0.014038	-0.016632	0.17792	0.009613	0.12909	-0.005646	-0.16281	-0.014954	-0.061493	-0.15564	-0.23361	0.002899	0.028076	-0.12222	0.15259	0.26337	-0.054016	0.15579	0.046997	0.16037	-0.025635	-0.019836	0.20325	-0.00885	-0.31937	0.40558	0.00473	-0.012207
31.126	-0.006866	1.1044	-0.035858	-0.022125	-0.00061	-0.027008	0.15884	0.016632	0.14206	-0.055695	-0.15106	-0.005951	-0.026245	-0.18723	0.039825	0.03418	0.062866	-0.1445	0.60837	0.1471	-0.075531	0.032806	0.099182	0.098267	-0.031433	-0.020752	-0.29724	-0.002747	-0.52978	0.31632	0.002441	-0.009766
31.127	-0.004578	1.0612	-0.033417	-0.010223	-0.015411	-0.024567	0.17502	0.014648	0.17075	-0.099182	-0.028076	-0.015106	0.027771	-0.10635	0.2272	0.031738	0.050354	-0.15182	0.52567	0.14542	-0.092316	-0.065918	0.031281	0.040436	-0.010223	0.00061	-0.84854	-0.008392	-0.50278	-0.023346	0.000458	-0.000153
31.128	-0.005035	1.0135	-0.044403	-0.016632	-0.020599	-0.014038	0.18707	0.013733	0.1831	-0.069275	0.044098	-0.011444	0.079346	0.004578	0.063171	0.01709	0.0383	-0.17105	0.26443	0.14923	-0.091705	-0.072327	0.19196	-0.066833	-0.0737	-0.005646	-0.47089	-0.001068	-0.44311	-0.15472	-0.002289	-0.00351
31.129	0.003967	0.95642	-0.061646	-0.004883	0.00824	0.011902	0.19043	0.014801	0.1947	-0.03891	0.077667	-0.026703	0.10101	-0.015717	0.053406	0.006714	0.020447	-0.13062	0.32654	0.13626	-0.083618	-0.096588	-0.011139	0.001068	-0.15686	-0.012207	0.041656	-0.003357	0.90393	-0.17746	0.001831	0.000763
31.13	0.005188	0.90698	-0.067902	0.00061	0.014343	0.002899	0.19119	0.010071	0.19592	-0.036774	-0.013733	-0.014496	0.013123	-0.010223	-0.090179	0.001984	0.005341	-0.079498	0.091705	0.036926	-0.073547	-0.099335	-0.075226	0.036926	-0.26504	-0.009613	0.31082	-0.00473	0.74204	0.014496	0.001068	0.002136
31.131	0.015259	0.80627	-0.068665	-0.007019	0.010529	0.040131	0.15213	0.019989	0.2066	-0.051422	-0.024567	-0.015869	-0.014191	-0.066071	0.039368	0.001526	0.006256	-0.19974	0.46677	-0.065308	-0.062714	-0.075073	-0.17777	-0.092926	-0.041046	-0.014648	0.65338	-0.002289	0.021362	0.023193	-0.004578	-0.000916
31.132	0.01297	0.76157	-0.06012	-0.004578	0.010529	0.026093	0.15564	0.020142	0.20905	-0.097656	-0.021057	-0.015717	0.048065	-0.076599	0.004883	-0.004883	-0.005646	-0.22614	0.69778	0.02121	-0.038147	-0.051727	-0.55496	-0.09613	0.3212	-0.021515	0.82367	-0.003052	0.042572	0.015106	-0.000458	-0.00412
31.133	0.019989	0.72647	-0.09552	-0.003357	-0.021362	0.024567	0.16266	0.019531	0.21652	-0.094604	0.015411	-0.009918	0.050049	-0.044861	-0.11383	0.000763	-0.019226	-0.19134	0.62195	0.074615	0.005188	-0.017548	-0.70328	-0.084839	0.37079	-0.01709	0.48843	-0.004272	-0.37521	-0.061493	-0.002289	-0.002136
31.134	0.030365	0.71396	-0.14725	0.001984	-0.016479	0.026245	0.12924	0.027161	0.21362	-0.038452	0.050659	-0.016937	0.023346	-0.036469	-0.21194	-0.006256	-0.014648	-0.1944	0.46066	0.17792	-0.001831	-0.078735	-0.62607	-0.096588	0.36362	-0.012207	0.32837	-0.004272	-0.36316	-0.083466	0.001068	0.001221
31.135	-0.001373	0.68634	-0.092163	0.000763	-0.044861	0.028076	0.10941	0.022125	0.21515	-0.004272	0.13428	-0.009766	0.026855	-0.022125	0.17563	-0.004425	0.024719	-0.19363	0.59753	0.040741	-0.035858	-0.041199	-0.63324	-0.040131	0.26611	-0.019379	-0.56946	-0.006104	-0.23682	-0.014648	0.001526	0
31.136	0.007477	0.63232	-0.036926	0.018005	-0.014343	0.037079	0.10819	0.024109	0.22034	0.042572	0.12192	-0.004883	0.11551	-0.021515	0.59189	-0.005188	0.012054	-0.17609	0.76553	-0.11734	-0.046082	0.010071	-0.49347	0.14908	0.13229	-0.013275	-0.80383	-0.00351	-0.75195	0.074463	-0.000916	-0.002136
31.137	-0.005188	0.60471	0.005035	0.03479	0.032196	0.027161	0.093842	0.020752	0.22934	0.045624	0.07019	-0.011749	0.16769	-0.009766	-0.031891	0.003204	0.001526	-0.089417	0.94437	-0.24109	-0.055389	-0.048218	-0.20203	0.23392	-0.2002	-0.015869	-0.32105	-0.002136	-0.1059	-0.076294	0.003052	-0.00946
31.138	-0.005035	0.57144	0.014648	0.046997	-0.007019	0.046539	0.094757	0.018921	0.22934	0.062256	0.059052	-0.007324	0.12161	0.037842	0.11551	0.011292	0.007935	-0.19791	1.2537	-0.32059	-0.056458	-0.047607	-0.10605	0.11627	-0.57358	-0.003052	-0.073547	-0.004578	0.65308	-0.23895	-0.000153	-0.003662
31.139	-0.003662	0.55679	-0.068054	0.021057	-0.02594	0.03891	0.077972	0.014343	0.22888	0.05722	-0.077972	-0.009766	0.094757	0.078278	0.030365	0.003967	-0.00061	-0.077362	0.56946	-0.21683	-0.050507	-0.015717	0.005188	0.063629	-0.54398	0.00824	0.14999	-0.005798	0.52292	-0.2684	0.000916	-0.005035
